<svg width="159" height="27" viewBox="0 0 159 27" fill="none" xmlns="http://www.w3.org/2000/svg">
  <path fill-rule="evenodd" clip-rule="evenodd"
    d="M125.541 12.141L127.197 12.1186L134.515 12.0963H134.515C134.444 12.0963 133.645 12.5207 132.687 13.0657C131.841 13.548 131.128 13.9543 130.513 14.3046C128.047 15.7096 127.164 16.2129 125.606 17.0997C123.263 18.431 121.264 19.5702 120.045 20.2715C119.59 20.5306 119.14 20.7808 119.04 20.83C118.821 20.9327 117.555 21.6386 113.787 23.765L110.876 25.4045L104.665 25.4001C101.251 25.4001 97.9739 25.3867 97.3883 25.3688L96.3294 25.342L96.288 25.208C96.2525 25.0829 95.797 23.7516 95.4361 22.7063C95.3845 22.5634 95.2869 22.2784 95.1758 21.9542C95.0959 21.721 95.009 21.4675 94.9274 21.232C94.7381 20.6647 94.4186 19.7399 94.2234 19.177C94.1307 18.9076 93.9953 18.5122 93.8489 18.0847C93.687 17.6119 93.5116 17.0999 93.3656 16.6753C93.0876 15.8623 92.78 14.9777 92.6853 14.7097C92.3126 13.6286 91.8571 12.2705 91.8571 12.2303C91.8571 12.199 93.4484 12.1901 96.3885 12.1946L100.92 12.208L101.79 13.5035C101.967 13.7705 102.258 14.2055 102.609 14.7298C103.191 15.6002 103.937 16.717 104.605 17.7207C105.682 19.3245 106.587 20.6468 106.623 20.6602C106.658 20.6691 107.066 20.4904 107.522 20.2626C107.721 20.1642 107.955 20.0483 108.183 19.9351C108.483 19.7861 108.774 19.6417 108.965 19.5478C109.243 19.4152 109.876 19.1031 110.491 18.7998C110.621 18.7354 110.751 18.6715 110.876 18.6097C111.163 18.468 111.66 18.2225 112.264 17.9239C113.163 17.479 114.302 16.9161 115.342 16.4028C116.139 16.0078 116.96 15.6015 117.665 15.2522C118.499 14.8393 119.172 14.5061 119.454 14.3657C119.702 14.2421 120.008 14.091 120.306 13.944C120.633 13.7829 120.95 13.6267 121.169 13.5169C121.595 13.3069 122.376 12.9183 122.914 12.6502L123.891 12.1633L125.541 12.141Z"
    fill="#E52F4B" />
  <path
    d="M9.34524 12.409C9.19144 12.5475 8.51705 13.2042 7.84266 13.8654C4.31692 17.3365 3.32309 18.3104 2.05122 19.5568C0.18187 21.3839 -0.0370096 21.6073 0.00440009 21.643C0.0458098 21.6698 12.522 21.6654 12.587 21.6341C12.6048 21.6251 12.8946 21.2901 13.2318 20.888C13.5631 20.486 14.1547 19.7891 14.5392 19.3334C14.9237 18.8777 15.3911 18.3238 15.5804 18.1049C15.7637 17.8815 16.2666 17.2963 16.6866 16.7959L17.4556 15.8935H26.4652H35.4748L35.8652 16.0008C36.4923 16.1705 36.723 16.3849 36.723 16.8004C36.723 17.2337 36.2793 17.5465 35.5398 17.6358C35.315 17.6626 33.9958 17.6805 32.369 17.6805C27.95 17.6805 23.886 17.7341 23.886 17.7877C23.886 17.8145 23.951 17.9351 24.0279 18.0602C24.1048 18.1808 24.3829 18.6365 24.6432 19.0654C25.7021 20.821 27.7607 24.2028 28.3819 25.208C28.7486 25.7977 29.1213 26.4052 29.216 26.5571L29.3816 26.8296L29.8726 26.8609C30.4701 26.8966 39.4797 26.8698 39.5329 26.8341C39.5625 26.8073 39.5211 26.6822 39.1306 25.677C38.9591 25.2392 38.3202 23.6533 37.9593 22.7733C37.8233 22.4427 37.6813 22.0808 37.6399 21.9691C37.5985 21.8575 37.5098 21.6386 37.4447 21.4777C37.0542 20.5485 36.9596 20.3028 36.9833 20.2849C37.001 20.2715 37.6044 20.2179 38.332 20.1599C42.6564 19.8203 45.4841 18.8197 46.5312 17.2516C46.8269 16.8093 46.8979 16.5234 46.8979 15.755C46.8979 14.9822 46.8269 14.6471 46.5489 14.1557C46.3123 13.7358 46.1111 13.5214 45.5906 13.1416C44.9103 12.6502 44.0643 12.342 43.1001 12.2348C42.8043 12.2035 37.3678 12.1812 26.1458 12.1722L9.61737 12.1544L9.34524 12.409Z"
    fill="#E52F4B" />
  <path
    d="M51.3643 12.1856C51.3406 12.2169 53.1686 13.4499 55.032 14.6606C55.2923 14.8303 55.5171 14.9867 55.523 15.009C55.5349 15.0269 54.5883 15.0447 53.423 15.0447H51.2992L50.9384 15.4155C50.2936 16.0722 49.5186 17.0149 48.5958 18.2612C47.5369 19.6953 47.4067 20.0482 47.4008 21.4554C47.4008 22.3667 47.4481 22.5812 47.7676 23.1485C48.3414 24.1805 49.631 24.9399 51.3643 25.2661C51.8316 25.3554 52.086 25.3599 66.2481 25.3911L80.6646 25.4224L82.8061 23.8186L84.9476 22.2148L81.4928 22.188C79.5998 22.1746 73.6131 22.1568 68.1944 22.1523L58.3389 22.1478L58.0194 22.0004C57.4752 21.7592 57.2918 21.3303 57.5403 20.9104C57.6704 20.7004 58.0372 20.477 58.3685 20.4056C58.5045 20.3788 61.1192 20.3564 65.5028 20.352C69.3125 20.3475 75.1276 20.3296 78.4285 20.3162L84.4329 20.2894L84.9949 20.1733C86.8051 19.8025 88.0178 19.3021 89.0531 18.5069C89.5796 18.1049 89.6919 17.9843 89.9582 17.5822C90.4077 16.8942 90.5142 16.4877 90.4787 15.6255C90.4551 15.0984 90.4196 14.8527 90.3249 14.6069C90.0883 13.9905 89.5559 13.3293 89.0531 13.0166C88.3787 12.6011 87.3138 12.2616 86.5271 12.208C85.8941 12.1678 51.3998 12.1454 51.3643 12.1856ZM79.0201 16.0767C79.233 16.1124 79.3928 16.175 79.5584 16.2911C79.7654 16.443 79.7891 16.4832 79.7891 16.6709C79.7891 16.9166 79.6767 17.0595 79.3928 17.1935C78.8663 17.4392 79.2094 17.4303 70.0756 17.4437C65.4259 17.4527 61.628 17.4482 61.628 17.4392C61.628 17.4169 61.8291 17.1757 62.4976 16.3939L62.8111 16.0276H70.7677C76.3048 16.0276 78.813 16.041 79.0201 16.0767Z"
    fill="#E52F4B" />
  <path
    d="M124.186 0.0835686C124.157 0.0701656 125.298 0.0478287 126.73 0.0344257C130.877 -0.00131226 151.162 -0.0147133 155.261 0.0210266L159 0.0478287V0.458826V0.865355L158.598 1.31209C158.13 1.82584 155.977 4.22481 155.125 5.17188C154.587 5.77498 152.445 8.15161 151.327 9.39354C151.061 9.68838 150.541 10.2691 150.162 10.6891C149.789 11.1045 149.263 11.6898 148.997 11.9846L148.94 12.0475L148.939 12.048L148.939 12.0481C148.652 12.3667 148.102 12.975 147.672 13.4588C147.21 13.9726 146.613 14.6382 146.346 14.9331C146.08 15.2279 145.554 15.8087 145.181 16.2286C144.432 17.0667 143.339 18.2767 142.546 19.1555L142.545 19.1564L142.544 19.1569L142.466 19.2441C142.17 19.5746 141.59 20.2179 141.182 20.6736C140.774 21.1293 140.182 21.7815 139.875 22.1255C139.561 22.4695 139.029 23.0636 138.686 23.4434C138.041 24.1671 136.686 25.6726 135.953 26.4812C135.609 26.8609 135.497 26.9547 135.349 26.977C135.047 27.0217 113.538 26.9949 113.52 26.9502C113.514 26.9234 114.283 26.0612 115.236 25.0293L117.632 22.5008C117.72 22.4382 118.839 21.7949 120.104 21.0757C121.376 20.352 123.21 19.3066 124.186 18.7526C127.706 16.7468 130.084 15.3932 132.35 14.1066C133.622 13.3873 134.728 12.7485 134.823 12.686C134.911 12.6234 134.982 12.5251 134.982 12.4626C134.982 12.3331 134.681 12.0963 134.515 12.0963H134.515L127.197 12.1186L128.321 10.9035C130.013 9.08082 131.196 7.79869 132.048 6.87395C132.468 6.41828 133.024 5.81071 133.285 5.52927L133.337 5.47304C133.369 5.43826 133.402 5.40194 133.437 5.36459C133.679 5.1031 133.967 4.79099 134.136 4.60453L134.509 4.198L133.906 3.9523C133.777 3.90122 133.62 3.83847 133.456 3.77318C133.271 3.69963 133.078 3.62287 132.91 3.55597L132.904 3.55343L132.705 3.47429C132.379 3.34474 131.954 3.17498 131.758 3.09457C131.563 3.01415 131.072 2.81759 130.664 2.66123C129.783 2.31278 126.476 1.00384 125.724 0.704529C125.434 0.588379 124.979 0.405216 124.719 0.302467C124.458 0.199718 124.222 0.101437 124.186 0.0835686Z"
    fill="white" />
  <path
    d="M133.437 5.36459C133.402 5.40194 133.369 5.43826 133.337 5.47304L133.337 5.47227C133.369 5.43773 133.403 5.40167 133.437 5.36459Z"
    fill="white" />
  <path
    d="M142.546 19.1555C142.545 19.156 142.545 19.1564 142.544 19.1569L142.545 19.1564L142.546 19.1555Z"
    fill="white" />
</svg>